<svg xmlns="http://www.w3.org/2000/svg" viewBox="0 0 2008.71 386.96"><g id="Layer_2" data-name="Layer 2"><g id="Layer_1-2" data-name="Layer 1"><path d="M0,189.62C0,132.37,40.7,85.68,99.94,85.68c59.64,0,96.71,43.44,96.71,99.07V201h-158c4.44,34.11,30.23,58.07,65.69,58.07,15.11,0,29.28-4.13,40.63-12.57,13.72-10.21,31.79-12.27,47-4.42l.66.34c-17.33,34.11-49.16,52.38-87.85,52.38C44.73,294.79,0,250.94,0,189.62ZM156.76,175c-1.62-31.68-24.59-53.2-57.23-53.2-33.44,0-55.2,23.56-59.23,53.2Z" fill="#fff"/><path d="M213.77,190.44c0-56.85,45.13-103.95,105.18-103.95,59.64,0,105.17,44.66,105.17,104v99.88H420.9a34.79,34.79,0,0,1-34.66-34.92h0c-14.91,24.37-41.1,39.8-73.34,39.8C255.68,295.2,213.77,248.1,213.77,190.44Zm170.46.4c0-36.54-28.21-66.59-65.28-66.59-36.67,0-65.28,30.05-65.28,66.59C253.67,227,282.28,257,319,257,356,257,384.23,227,384.23,190.84Z" fill="#fff"/><path d="M481.2,290.32a40,40,0,0,1-39.89-40.2V171.76c0-48.32,27.4-84.46,79-84.46,12.49,0,25.39,2.44,35.46,7.31V134.4a63.5,63.5,0,0,0-31.84-8.52c-26.59,0-42.71,18.27-42.71,47.5V290.32Z" fill="#fff"/><path d="M612,218.86V126.28H572.93V91.36H612V39.79h39.89V91.36H693a34.79,34.79,0,0,1,34.65,34.92H651.91v91.36c0,26,15.32,41.42,39.09,41.42a66.75,66.75,0,0,0,36.67-11.78v37c-10.07,6.91-25.79,11.37-40.3,11.37C638.21,295.6,612,264.34,612,218.86Z" fill="#fff"/><path d="M744.85,290.32V0h0a40,40,0,0,1,39.9,40.2v73.49c15.31-16.64,39.09-27.2,65.68-27.2,58,0,90.67,39,90.67,99.89V290.32H901.21V190.44c0-35.33-19.35-65.78-56.82-65.78-35.06,0-59.64,28.42-59.64,67v98.67Z" fill="#fff"/><path d="M954,333.77h0a48.58,48.58,0,0,1,51.82,3.32c11.35,8.09,25.66,12.52,41.67,12.52,41.91,0,63.67-31.68,63.67-74.72V257.43c-11.69,22.34-32.64,35.74-62.46,35.74-60.45,0-89.86-40.2-89.86-98.67V91.36h39.49V192.47c0,37.35,19.34,62.93,55.2,62.93,34.66,0,57.23-29.23,57.23-65.78V91.36H1151V274.49c0,66.59-38.68,112.47-102.76,112.47C1006.34,387,971.68,369.1,954,333.77Z" fill="#fff"/><path d="M1228.73,230.64V108h-43.52a13.35,13.35,0,0,1,13.3-13.4h30.22V42.23h0a14.15,14.15,0,0,1,14.1,14.21V94.61h82.61V108h-82.61V230.23c0,31.67,17.73,50.35,45.14,50.35A54.62,54.62,0,0,0,1325.44,266v15a61.71,61.71,0,0,1-38.28,13.39C1251.3,294.38,1228.73,269.62,1228.73,230.64Z" fill="#fff"/><path d="M1342.55,192.06c0-55.63,43.12-101.51,100.74-101.51,56,0,100.74,44.66,100.74,101.51v98.26h0a13.75,13.75,0,0,1-13.7-13.8v-40.2c-14.91,34.11-47.95,57.66-88.25,57.66C1386.07,294,1342.55,248.1,1342.55,192.06Zm187.38,0c0-47.91-38.69-87.71-86.64-87.71s-86.23,39.8-86.23,87.71c0,48.32,38.28,88.11,86.23,88.11S1529.93,240.38,1529.93,192.06Z" fill="#fff"/><path d="M1561.14,191.1V4.87h0a14.16,14.16,0,0,1,14.1,14.22V145.77c15.72-32.48,48.36-55.22,87.44-55.22,56.42,0,99.94,45.88,99.94,102.32,0,56.15-43.93,102.37-101.94,101.5C1605.22,293.55,1561.14,247,1561.14,191.1Zm187.38,1.77c0-48.32-38.29-88.52-86.24-88.52-48.36,0-86.64,40.2-86.64,88.52,0,47.92,38.28,87.71,86.64,87.71C1710.23,280.58,1748.52,240.79,1748.52,192.87Z" fill="#fff"/><path d="M1773.28,251.34h0a14.59,14.59,0,0,1,18.91,4.13c12.66,16.8,30.73,23.89,51.61,23.89,29,0,54-15,54-41.42,0-59.68-118.07-18.67-118.07-92.17,0-31.67,29.42-53.19,62.86-53.19,28.21,0,52,11.77,65.28,35.73h0a15.08,15.08,0,0,1-19-3.23c-11.71-13.74-28-18.69-45.89-18.69-25,0-48.76,15.42-48.76,39.38,0,58.07,118.07,17.87,118.07,92.17,0,34.11-31.84,55.23-68.11,55.23C1814,293.17,1787.39,279.36,1773.28,251.34Z" fill="#fff"/><path d="M1936.05,36.46V75.7h-6.75V36.46h-14.72l.84-6.17H1950l.78,6.17Z" fill="#fff"/><path d="M2008.71,75.7H2002l-.64-13.94-.65-18.36-14.34,32.3H1980L1965.64,43,1965,61.76l-.71,13.94h-6.68l2.2-45.41h6.62l16.8,38.15L2000,30.29h6.56Z" fill="#fff"/></g></g></svg>