<svg xmlns="http://www.w3.org/2000/svg" viewBox="0 0 431.32 421.09"><g id="Layer_2" data-name="Layer 2"><g id="Layer_1-2" data-name="Layer 1"><path d="M69.31,163.24C155.46,58.75,322.83,81.52,370.4,111.88c18.87,108.75-31.93,182.2-61.21,210.6-30.7,29.79-112.77,58.53-156.44,10h0C272.26,338.35,291,218.45,287,178.85a165.12,165.12,0,0,0-38-5.51C116.15,170.1,41.15,334.19,155.32,402.27c.28.16.77.44,1.45.8a150.19,150.19,0,0,0,67.82,18l.88,0c87.92,1.62,167.17-53.9,194.9-137.35a215.58,215.58,0,0,0,10.95-68h0C431.32,96.55,334.77,0,215.66,0h0C96.55,0,0,96.55,0,215.66H0a215,215,0,0,0,18.25,87C17.68,249.94,37.08,202.35,69.31,163.24Z" fill="#073b4c"/><path d="M388.37,381.9v14.53h-2.5V381.9h-5.45l.31-2.28h12.8l.28,2.28Z" fill="#073b4c"/><path d="M415.25,396.43h-2.49l-.24-5.16-.24-6.8-5.31,12h-2.33l-5.33-12.1-.23,6.94-.27,5.16h-2.47l.81-16.81h2.45l6.22,14.12L412,379.62h2.43Z" fill="#073b4c"/></g></g></svg>